<svg id="svg" version="1.1" xmlns="http://www.w3.org/2000/svg" xmlns:xlink="http://www.w3.org/1999/xlink" width="400" height="261.9318181818182" viewBox="0, 0, 400,261.9318181818182"><g id="svgg"><path id="path0" d="M0.000 130.976 L 0.000 261.952 200.000 261.952 L 400.000 261.952 400.000 194.799 C 400.000 157.866,399.924 126.923,399.832 126.037 L 399.663 124.427 398.144 124.427 L 396.625 124.427 396.524 125.540 L 396.424 126.654 396.378 125.540 L 396.333 124.427 394.106 124.427 C 392.302 124.427,391.880 124.353,391.880 124.034 C 391.880 123.816,392.112 123.641,392.403 123.641 C 392.692 123.641,392.927 123.523,392.927 123.379 C 392.927 123.216,391.443 123.117,388.998 123.117 C 386.553 123.117,385.069 123.018,385.069 122.855 C 385.069 122.711,385.305 122.593,385.593 122.593 C 385.881 122.593,386.117 122.475,386.117 122.331 C 386.117 122.168,384.632 122.069,382.187 122.069 C 379.742 122.069,378.258 121.970,378.258 121.807 C 378.258 121.663,378.494 121.546,378.782 121.546 C 379.070 121.546,379.306 121.428,379.306 121.284 C 379.306 121.116,376.593 121.007,371.775 120.980 C 367.633 120.957,364.655 120.888,365.158 120.827 C 365.661 120.767,366.160 120.579,366.267 120.411 C 366.412 120.184,366.463 120.189,366.466 120.432 C 366.469 120.657,366.961 120.760,368.042 120.760 C 369.598 120.760,370.322 120.086,369.286 119.603 C 369.024 119.480,369.024 119.419,369.286 119.297 C 370.005 118.962,369.544 118.664,368.304 118.664 C 367.583 118.664,366.994 118.546,366.994 118.402 C 366.994 118.258,367.230 118.140,367.518 118.140 C 367.806 118.140,368.042 118.022,368.042 117.878 C 368.042 116.851,366.468 117.688,366.440 118.730 C 366.423 119.342,366.351 119.607,366.279 119.319 C 366.207 119.031,366.014 118.698,365.851 118.579 C 365.633 118.420,365.641 118.327,365.881 118.229 C 366.671 117.909,366.086 117.616,364.655 117.616 C 363.252 117.616,363.090 117.673,362.988 118.206 L 362.874 118.795 362.839 118.206 C 362.803 117.624,362.754 117.616,359.125 117.616 C 355.985 117.616,355.497 117.563,355.785 117.249 C 355.971 117.047,356.162 116.988,356.210 117.118 C 356.258 117.248,356.995 117.354,357.848 117.354 L 359.398 117.354 359.398 116.306 C 359.398 115.317,359.354 115.259,358.612 115.259 C 358.179 115.259,357.826 115.141,357.826 114.997 C 357.826 114.853,358.062 114.735,358.350 114.735 C 358.638 114.735,358.874 114.617,358.874 114.473 C 358.874 114.329,358.291 114.211,357.579 114.211 L 356.284 114.211 356.184 115.324 L 356.084 116.437 356.038 115.324 L 355.992 114.211 351.997 114.155 C 348.041 114.099,348.033 114.097,351.136 114.015 C 353.227 113.959,354.338 113.825,354.476 113.613 C 354.634 113.369,354.738 113.381,354.921 113.664 C 355.123 113.978,355.221 113.971,355.575 113.617 C 356.234 112.958,356.110 112.901,354.028 112.901 C 352.892 112.901,352.063 112.791,352.063 112.639 C 352.063 112.495,352.358 112.377,352.718 112.377 C 353.078 112.377,353.373 112.259,353.373 112.115 C 353.373 111.971,352.842 111.853,352.194 111.853 C 351.546 111.853,351.015 111.735,351.015 111.591 C 351.015 111.447,351.251 111.329,351.539 111.329 C 351.827 111.329,352.063 111.212,352.063 111.067 C 352.063 110.904,350.126 110.785,346.889 110.750 C 343.570 110.714,342.772 110.664,344.663 110.610 C 346.329 110.563,347.610 110.416,347.610 110.273 C 347.610 110.134,347.845 110.020,348.134 110.020 C 348.422 110.020,348.657 109.902,348.657 109.758 C 348.657 109.614,348.186 109.496,347.610 109.496 C 347.033 109.496,346.562 109.378,346.562 109.234 C 346.562 109.090,346.798 108.972,347.086 108.972 C 347.374 108.972,347.610 108.854,347.610 108.710 C 347.610 108.562,346.867 108.448,345.907 108.448 C 344.379 108.448,344.204 108.394,344.204 107.924 C 344.204 107.425,344.012 107.398,340.210 107.347 C 337.705 107.313,337.042 107.260,338.433 107.204 C 339.786 107.150,340.731 106.992,340.856 106.799 C 341.010 106.561,341.131 106.580,341.343 106.876 C 341.555 107.172,341.658 107.188,341.758 106.942 C 341.831 106.762,342.175 106.614,342.523 106.614 C 342.872 106.614,343.157 106.496,343.157 106.352 C 343.157 106.205,342.414 106.090,341.454 106.090 C 340.493 106.090,339.751 105.976,339.751 105.828 C 339.751 105.684,339.987 105.566,340.275 105.566 C 340.563 105.566,340.799 105.449,340.799 105.305 C 340.799 105.160,340.269 105.043,339.620 105.043 C 338.972 105.043,338.441 104.925,338.441 104.781 C 338.441 104.637,338.736 104.519,339.096 104.519 C 339.504 104.519,339.751 104.370,339.751 104.126 C 339.751 103.817,339.387 103.733,338.048 103.733 C 336.520 103.733,336.346 103.679,336.346 103.209 C 336.346 102.825,336.171 102.685,335.691 102.685 C 335.331 102.685,335.036 102.567,335.036 102.423 C 335.036 102.279,335.331 102.161,335.691 102.161 C 336.051 102.161,336.346 102.043,336.346 101.899 C 336.346 101.751,335.604 101.637,334.643 101.637 C 333.683 101.637,332.940 101.523,332.940 101.375 C 332.940 101.231,333.176 101.113,333.464 101.113 C 333.755 101.113,333.988 100.939,333.988 100.720 C 333.988 100.429,333.683 100.327,332.809 100.327 C 332.161 100.327,331.631 100.210,331.631 100.065 C 331.631 99.921,331.925 99.804,332.286 99.804 C 332.646 99.804,332.940 99.686,332.940 99.542 C 332.940 98.924,329.579 99.240,329.458 99.869 C 329.396 100.193,329.328 99.957,329.309 99.345 C 329.279 98.418,329.185 98.232,328.749 98.232 C 328.461 98.232,328.225 98.114,328.225 97.970 C 328.225 97.826,328.461 97.708,328.749 97.708 C 329.040 97.708,329.273 97.533,329.273 97.315 C 329.273 97.006,328.909 96.922,327.570 96.922 L 325.868 96.922 325.868 95.874 L 325.868 94.826 324.820 94.826 C 324.244 94.826,323.772 94.709,323.772 94.565 C 323.772 94.420,324.008 94.303,324.296 94.303 C 324.587 94.303,324.820 94.128,324.820 93.910 C 324.820 93.093,322.777 93.401,322.650 94.237 C 322.583 94.682,322.526 94.482,322.502 93.713 C 322.468 92.657,322.383 92.469,321.938 92.469 C 321.650 92.469,321.415 92.351,321.415 92.207 C 321.415 92.063,321.650 91.945,321.938 91.945 C 322.227 91.945,322.462 91.827,322.462 91.683 C 322.462 91.539,321.991 91.421,321.415 91.421 C 320.838 91.421,320.367 91.303,320.367 91.159 C 320.367 91.015,320.602 90.897,320.891 90.897 C 321.182 90.897,321.415 90.723,321.415 90.504 C 321.415 90.221,321.125 90.111,320.381 90.111 L 319.348 90.111 319.250 91.356 C 319.168 92.388,319.143 92.299,319.104 90.832 C 319.062 89.254,319.001 89.064,318.533 89.064 C 318.184 89.064,318.009 88.889,318.009 88.540 C 318.009 87.714,315.996 87.775,315.836 88.605 C 315.774 88.929,315.707 88.399,315.687 87.426 L 315.652 85.658 314.604 85.658 C 314.028 85.658,313.556 85.540,313.556 85.396 C 313.556 85.252,313.792 85.134,314.080 85.134 C 314.368 85.134,314.604 85.016,314.604 84.872 C 314.604 84.728,314.368 84.610,314.080 84.610 C 313.792 84.610,313.556 84.497,313.556 84.358 C 313.556 84.217,312.363 84.067,310.871 84.020 L 308.186 83.935 310.871 83.880 C 313.480 83.826,314.846 83.301,312.377 83.301 C 311.729 83.301,311.198 83.183,311.198 83.039 C 311.198 82.895,311.434 82.777,311.722 82.777 C 312.010 82.777,312.246 82.659,312.246 82.515 C 312.246 82.371,312.010 82.253,311.722 82.253 C 311.434 82.253,311.198 82.135,311.198 81.991 C 311.198 81.847,311.434 81.729,311.722 81.729 C 312.010 81.729,312.246 81.611,312.246 81.467 C 312.246 81.323,311.785 81.205,311.220 81.205 C 310.656 81.205,310.126 81.058,310.041 80.878 C 309.919 80.616,309.858 80.616,309.736 80.878 C 309.557 81.260,308.841 81.322,308.841 80.955 C 308.841 80.817,307.986 80.663,306.942 80.614 C 305.211 80.531,305.270 80.519,307.597 80.471 C 309.768 80.427,311.521 79.895,309.496 79.895 C 309.136 79.895,308.841 79.777,308.841 79.633 C 308.841 79.489,309.136 79.371,309.496 79.371 C 309.856 79.371,310.151 79.253,310.151 79.109 C 310.151 78.965,309.620 78.847,308.972 78.847 C 308.324 78.847,307.793 78.730,307.793 78.585 C 307.793 78.441,308.029 78.324,308.317 78.324 C 308.605 78.324,308.841 78.206,308.841 78.062 C 308.841 77.917,308.369 77.800,307.793 77.800 C 307.217 77.800,306.745 77.687,306.745 77.549 C 306.745 77.411,305.832 77.258,304.715 77.208 C 302.713 77.120,302.720 77.118,305.239 77.066 C 307.753 77.015,309.004 76.490,306.614 76.490 C 305.966 76.490,305.435 76.372,305.435 76.228 C 305.435 76.084,305.730 75.966,306.090 75.966 C 306.451 75.966,306.745 75.848,306.745 75.704 C 306.745 75.560,306.451 75.442,306.090 75.442 C 305.730 75.442,305.435 75.324,305.435 75.180 C 305.435 75.036,305.730 74.918,306.090 74.918 C 306.451 74.918,306.745 74.800,306.745 74.656 C 306.745 74.508,306.003 74.394,305.043 74.394 C 304.106 74.394,303.340 74.282,303.340 74.144 C 303.340 74.007,302.544 73.853,301.572 73.803 C 299.899 73.716,299.927 73.708,302.096 73.660 C 303.994 73.617,305.632 73.084,303.864 73.084 C 303.576 73.084,303.340 72.967,303.340 72.823 C 303.340 72.678,303.576 72.561,303.864 72.561 C 304.152 72.561,304.388 72.443,304.388 72.299 C 304.388 72.155,303.857 72.037,303.209 72.037 C 302.561 72.037,302.030 71.919,302.030 71.775 C 302.030 71.631,302.325 71.513,302.685 71.513 C 303.045 71.513,303.340 71.395,303.340 71.251 C 303.340 71.107,303.045 70.989,302.685 70.989 C 302.325 70.989,302.030 70.876,302.030 70.737 C 302.030 70.599,300.999 70.446,299.738 70.398 L 297.446 70.311 299.738 70.257 C 301.638 70.212,303.269 69.679,301.506 69.679 C 301.157 69.679,300.982 69.504,300.982 69.155 C 300.982 68.806,300.808 68.631,300.458 68.631 C 300.170 68.631,299.935 68.513,299.935 68.369 C 299.935 68.225,300.170 68.107,300.458 68.107 C 300.747 68.107,300.982 67.990,300.982 67.845 C 300.982 67.701,300.452 67.583,299.804 67.583 C 298.930 67.583,298.625 67.482,298.625 67.191 C 298.625 66.946,298.872 66.798,299.280 66.798 C 299.640 66.798,299.935 66.680,299.935 66.536 C 299.935 66.392,299.640 66.274,299.280 66.274 C 298.919 66.274,298.625 66.156,298.625 66.012 C 298.625 65.868,298.919 65.750,299.280 65.750 C 299.640 65.750,299.935 65.632,299.935 65.488 C 299.935 65.344,299.404 65.226,298.756 65.226 C 298.107 65.226,297.577 65.108,297.577 64.964 C 297.577 64.820,297.813 64.702,298.101 64.702 C 298.389 64.702,298.625 64.584,298.625 64.440 C 298.625 64.296,298.153 64.178,297.577 64.178 C 296.820 64.178,296.529 64.069,296.529 63.785 C 296.529 63.567,296.762 63.392,297.053 63.392 C 297.341 63.392,297.577 63.274,297.577 63.130 C 297.577 62.986,297.341 62.868,297.053 62.868 C 296.704 62.868,296.529 62.694,296.529 62.344 C 296.529 61.960,296.355 61.821,295.874 61.821 C 295.514 61.821,295.219 61.703,295.219 61.559 C 295.219 61.415,295.514 61.297,295.874 61.297 C 296.234 61.297,296.529 61.179,296.529 61.035 C 296.529 60.891,295.999 60.773,295.350 60.773 C 294.477 60.773,294.172 60.671,294.172 60.380 C 294.172 60.162,294.404 59.987,294.695 59.987 C 294.984 59.987,295.219 59.869,295.219 59.725 C 295.219 59.581,294.984 59.463,294.695 59.463 C 294.407 59.463,294.172 59.345,294.172 59.201 C 294.172 59.057,294.407 58.939,294.695 58.939 C 294.984 58.939,295.219 58.821,295.219 58.677 C 295.219 58.533,294.748 58.415,294.172 58.415 C 293.595 58.415,293.124 58.297,293.124 58.153 C 293.124 58.009,293.360 57.891,293.648 57.891 C 293.936 57.891,294.172 57.773,294.172 57.629 C 294.172 57.485,293.936 57.367,293.648 57.367 C 293.357 57.367,293.124 57.193,293.124 56.974 C 293.124 56.756,293.357 56.582,293.648 56.582 C 293.936 56.582,294.172 56.464,294.172 56.320 C 294.172 56.176,293.641 56.058,292.993 56.058 C 292.344 56.058,291.814 55.940,291.814 55.796 C 291.814 55.652,292.109 55.534,292.469 55.534 C 292.829 55.534,293.124 55.416,293.124 55.272 C 293.124 55.128,292.829 55.010,292.469 55.010 C 292.109 55.010,291.814 54.892,291.814 54.748 C 291.814 54.604,292.109 54.486,292.469 54.486 C 292.829 54.486,293.124 54.368,293.124 54.224 C 293.124 54.080,292.593 53.962,291.945 53.962 C 291.072 53.962,290.766 53.860,290.766 53.569 C 290.766 53.351,290.999 53.176,291.290 53.176 C 291.578 53.176,291.814 53.058,291.814 52.914 C 291.814 52.770,291.578 52.652,291.290 52.652 C 291.002 52.652,290.766 52.534,290.766 52.390 C 290.766 52.246,291.002 52.128,291.290 52.128 C 291.578 52.128,291.814 52.010,291.814 51.866 C 291.814 51.722,291.343 51.604,290.766 51.604 C 290.190 51.604,289.718 51.487,289.718 51.343 C 289.718 51.198,289.954 51.081,290.242 51.081 C 290.530 51.081,290.766 50.963,290.766 50.819 C 290.766 50.675,290.530 50.557,290.242 50.557 C 289.951 50.557,289.718 50.382,289.718 50.164 C 289.718 49.945,289.951 49.771,290.242 49.771 C 290.530 49.771,290.766 49.653,290.766 49.509 C 290.766 49.365,290.413 49.247,289.980 49.247 L 289.194 49.247 289.141 51.670 L 289.087 54.093 288.999 51.744 C 288.944 50.286,288.791 49.317,288.594 49.190 C 288.356 49.036,288.375 48.920,288.671 48.723 C 289.020 48.490,289.020 48.430,288.671 48.179 C 288.375 47.967,288.359 47.864,288.605 47.764 C 289.212 47.518,288.938 47.151,288.147 47.151 C 287.623 47.151,287.361 47.020,287.361 46.758 C 287.361 46.540,287.594 46.365,287.885 46.365 C 288.173 46.365,288.409 46.248,288.409 46.103 C 288.409 45.959,288.173 45.842,287.885 45.842 C 287.597 45.842,287.361 45.724,287.361 45.580 C 287.361 45.435,287.125 45.318,286.837 45.318 C 286.549 45.318,286.313 45.200,286.313 45.056 C 286.313 44.912,286.549 44.794,286.837 44.794 C 287.125 44.794,287.361 44.676,287.361 44.532 C 287.361 44.388,287.125 44.270,286.837 44.270 C 286.549 44.270,286.313 44.152,286.313 44.008 C 286.313 42.816,285.793 44.142,285.721 45.514 L 285.630 47.282 285.578 45.528 L 285.527 43.773 284.152 43.677 L 282.777 43.581 284.152 43.532 C 285.530 43.484,286.279 42.261,285.200 41.823 C 284.949 41.721,284.958 41.630,285.242 41.432 C 285.557 41.212,285.550 41.112,285.195 40.757 C 284.746 40.308,282.492 40.165,282.340 40.577 C 282.292 40.707,282.101 40.648,281.915 40.446 C 281.628 40.133,281.872 40.079,283.552 40.079 C 285.365 40.079,286.018 39.828,285.200 39.446 C 284.938 39.323,284.938 39.262,285.200 39.140 C 285.796 38.862,285.539 38.507,284.741 38.507 C 284.309 38.507,283.955 38.389,283.955 38.245 C 283.955 38.101,284.191 37.983,284.479 37.983 C 284.768 37.983,285.003 37.865,285.003 37.721 C 285.003 37.577,284.768 37.459,284.479 37.459 C 284.191 37.459,283.955 37.341,283.955 37.197 C 283.955 36.407,282.414 36.959,282.311 37.787 L 282.206 38.638 282.164 37.802 C 282.125 37.039,282.037 36.958,281.139 36.864 L 280.157 36.761 281.139 36.717 L 282.122 36.673 282.122 35.476 C 282.122 34.005,281.741 33.593,280.258 33.461 C 279.218 33.369,279.252 33.355,280.616 33.314 C 282.015 33.271,282.561 32.966,281.794 32.655 C 281.548 32.555,281.564 32.452,281.860 32.240 C 282.209 31.989,282.209 31.929,281.860 31.696 C 281.511 31.463,281.511 31.403,281.860 31.152 C 282.156 30.940,282.172 30.838,281.925 30.738 C 281.537 30.580,281.483 29.862,281.860 29.862 C 282.004 29.862,282.122 29.745,282.122 29.601 C 282.122 29.456,281.768 29.339,281.336 29.339 C 280.904 29.339,280.550 29.221,280.550 29.077 C 280.550 28.933,280.786 28.815,281.074 28.815 C 281.362 28.815,281.598 28.697,281.598 28.553 C 281.598 28.409,281.362 28.291,281.074 28.291 C 280.786 28.291,280.550 28.173,280.550 28.029 C 280.550 27.885,280.786 27.767,281.074 27.767 C 281.362 27.767,281.598 27.649,281.598 27.505 C 281.598 27.361,281.362 27.243,281.074 27.243 C 280.783 27.243,280.550 27.068,280.550 26.850 C 280.550 26.632,280.783 26.457,281.074 26.457 C 281.362 26.457,281.598 26.339,281.598 26.195 C 281.598 26.051,281.362 25.933,281.074 25.933 C 280.786 25.933,280.550 25.815,280.550 25.671 C 280.550 25.527,280.786 25.409,281.074 25.409 C 281.362 25.409,281.598 25.291,281.598 25.147 C 281.598 25.003,281.126 24.885,280.550 24.885 C 279.974 24.885,279.502 24.768,279.502 24.623 C 279.502 24.479,279.738 24.361,280.026 24.361 C 280.314 24.361,280.550 24.244,280.550 24.100 C 280.550 23.955,280.314 23.838,280.026 23.838 C 279.735 23.838,279.502 23.663,279.502 23.445 C 279.502 23.226,279.735 23.052,280.026 23.052 C 280.314 23.052,280.550 22.934,280.550 22.790 C 280.550 22.646,280.314 22.528,280.026 22.528 C 279.738 22.528,279.502 22.410,279.502 22.266 C 279.502 22.122,279.738 22.004,280.026 22.004 C 280.314 22.004,280.550 21.886,280.550 21.742 C 280.550 21.598,280.314 21.480,280.026 21.480 C 279.738 21.480,279.502 21.362,279.502 21.218 C 279.502 21.074,279.738 20.956,280.026 20.956 C 280.314 20.956,280.550 20.838,280.550 20.694 C 280.550 20.550,280.200 20.432,279.772 20.432 L 278.994 20.432 278.912 23.903 L 278.831 27.374 278.774 23.903 C 278.739 21.802,278.613 20.432,278.454 20.432 C 278.077 20.432,278.131 19.715,278.520 19.557 C 278.767 19.457,278.750 19.355,278.454 19.142 C 278.105 18.892,278.105 18.831,278.454 18.599 C 278.804 18.366,278.804 18.308,278.454 18.075 C 278.105 17.842,278.105 17.781,278.454 17.531 C 278.750 17.319,278.767 17.216,278.520 17.116 C 278.097 16.944,278.097 16.323,278.520 16.152 C 278.767 16.052,278.750 15.949,278.454 15.737 C 278.105 15.486,278.105 15.426,278.454 15.193 C 278.804 14.960,278.804 14.900,278.454 14.649 C 278.159 14.437,278.142 14.335,278.389 14.235 C 278.996 13.988,278.722 13.621,277.931 13.621 C 277.407 13.621,277.145 13.491,277.145 13.229 C 277.145 13.010,277.378 12.836,277.669 12.836 C 277.957 12.836,278.193 12.718,278.193 12.574 C 278.193 12.430,277.957 12.312,277.669 12.312 C 277.380 12.312,277.145 12.194,277.145 12.050 C 277.145 11.906,277.380 11.788,277.669 11.788 C 277.957 11.788,278.193 11.670,278.193 11.526 C 278.193 11.382,277.957 11.264,277.669 11.264 C 277.380 11.264,277.145 11.146,277.145 11.002 C 277.145 10.858,277.380 10.740,277.669 10.740 C 277.957 10.740,278.193 10.622,278.193 10.478 C 278.193 10.334,277.957 10.216,277.669 10.216 C 277.378 10.216,277.145 10.041,277.145 9.823 C 277.145 9.605,277.378 9.430,277.669 9.430 C 277.957 9.430,278.193 9.312,278.193 9.168 C 278.193 9.024,277.957 8.906,277.669 8.906 C 277.380 8.906,277.145 8.788,277.145 8.644 C 277.145 8.500,277.380 8.382,277.669 8.382 C 277.957 8.382,278.193 8.265,278.193 8.120 C 278.193 7.976,277.957 7.859,277.669 7.859 C 277.380 7.859,277.145 7.741,277.145 7.597 C 277.145 7.453,277.380 7.335,277.669 7.335 C 277.957 7.335,278.193 7.217,278.193 7.073 C 278.193 6.929,277.608 6.811,276.893 6.811 L 275.593 6.811 275.506 9.103 L 275.419 11.395 275.365 9.119 L 275.311 6.844 274.460 6.738 L 273.608 6.633 274.460 6.591 L 275.311 6.549 275.311 4.992 L 275.311 3.435 274.198 3.335 L 273.084 3.235 274.198 3.189 L 275.311 3.143 275.311 1.572 L 275.311 0.000 137.656 0.000 L 0.000 0.000 0.000 130.976 M275.573 1.572 C 275.573 2.445,275.689 3.143,275.835 3.143 C 275.979 3.143,276.097 3.026,276.097 2.881 C 276.097 2.737,276.333 2.620,276.621 2.620 C 276.909 2.620,277.145 2.502,277.145 2.358 C 277.145 2.213,276.909 2.096,276.621 2.096 C 276.333 2.096,276.097 1.978,276.097 1.834 C 276.097 1.690,276.333 1.572,276.621 1.572 C 276.909 1.572,277.145 1.454,277.145 1.310 C 277.145 1.166,276.909 1.048,276.621 1.048 C 276.333 1.048,276.097 0.930,276.097 0.786 C 276.097 0.642,276.333 0.524,276.621 0.524 C 276.909 0.524,277.145 0.406,277.145 0.262 C 277.145 0.118,276.791 0.000,276.359 0.000 L 275.573 0.000 275.573 1.572 M275.573 4.977 C 275.573 5.850,275.689 6.549,275.835 6.549 C 275.979 6.549,276.097 6.431,276.097 6.287 C 276.097 6.143,276.333 6.025,276.621 6.025 C 277.203 6.025,277.326 5.629,276.817 5.392 C 276.555 5.270,276.555 5.208,276.817 5.086 C 277.326 4.849,277.203 4.453,276.621 4.453 C 276.333 4.453,276.097 4.335,276.097 4.191 C 276.097 4.047,276.333 3.929,276.621 3.929 C 276.909 3.929,277.145 3.811,277.145 3.667 C 277.145 3.523,276.791 3.405,276.359 3.405 L 275.573 3.405 275.573 4.977 M282.384 32.482 C 282.384 33.181,282.471 33.268,283.170 33.268 C 283.602 33.268,283.955 33.150,283.955 33.006 C 283.955 32.862,283.720 32.744,283.432 32.744 C 283.143 32.744,282.908 32.626,282.908 32.482 C 282.908 32.338,283.026 32.220,283.170 32.220 C 283.314 32.220,283.432 32.102,283.432 31.958 C 283.432 31.814,283.196 31.696,282.908 31.696 C 282.500 31.696,282.384 31.871,282.384 32.482 M282.384 35.102 L 282.384 36.673 283.694 36.673 C 284.414 36.673,285.003 36.555,285.003 36.411 C 285.003 36.267,284.532 36.149,283.955 36.149 C 283.379 36.149,282.908 36.031,282.908 35.887 C 282.908 35.743,283.143 35.625,283.432 35.625 C 283.720 35.625,283.955 35.508,283.955 35.363 C 283.955 35.219,283.720 35.102,283.432 35.102 C 283.143 35.102,282.908 34.984,282.908 34.840 C 282.908 34.695,283.143 34.578,283.432 34.578 C 283.720 34.578,283.955 34.460,283.955 34.316 C 283.955 34.172,283.720 34.054,283.432 34.054 C 283.143 34.054,282.908 33.936,282.908 33.792 C 282.908 33.648,282.790 33.530,282.646 33.530 C 282.500 33.530,282.384 34.228,282.384 35.102 M285.789 43.222 C 285.789 43.366,286.143 43.484,286.575 43.484 C 287.007 43.484,287.361 43.366,287.361 43.222 C 287.361 43.078,287.007 42.960,286.575 42.960 C 286.143 42.960,285.789 43.078,285.789 43.222 M296.005 62.606 C 296.005 62.750,295.828 62.868,295.612 62.868 C 295.396 62.868,295.219 62.750,295.219 62.606 C 295.219 62.462,295.396 62.344,295.612 62.344 C 295.828 62.344,296.005 62.462,296.005 62.606 M315.914 87.099 C 315.914 87.317,316.146 87.492,316.437 87.492 C 316.729 87.492,316.961 87.317,316.961 87.099 C 316.961 86.881,316.729 86.706,316.437 86.706 C 316.146 86.706,315.914 86.881,315.914 87.099 M322.724 92.731 C 322.724 92.875,322.960 92.993,323.248 92.993 C 323.536 92.993,323.772 92.875,323.772 92.731 C 323.772 92.587,323.536 92.469,323.248 92.469 C 322.960 92.469,322.724 92.587,322.724 92.731 M326.130 95.088 C 326.130 95.232,326.365 95.350,326.654 95.350 C 326.942 95.350,327.177 95.232,327.177 95.088 C 327.177 94.944,326.942 94.826,326.654 94.826 C 326.365 94.826,326.130 94.944,326.130 95.088 M326.130 96.136 C 326.130 96.280,326.365 96.398,326.654 96.398 C 326.942 96.398,327.177 96.280,327.177 96.136 C 327.177 95.992,326.942 95.874,326.654 95.874 C 326.365 95.874,326.130 95.992,326.130 96.136 M329.535 98.494 C 329.535 98.638,329.771 98.756,330.059 98.756 C 330.347 98.756,330.583 98.638,330.583 98.494 C 330.583 98.350,330.347 98.232,330.059 98.232 C 329.771 98.232,329.535 98.350,329.535 98.494 M359.659 116.306 L 359.659 117.354 360.857 117.354 C 361.546 117.354,362.213 117.195,362.429 116.980 C 362.974 116.435,362.896 116.306,362.017 116.306 C 361.585 116.306,361.231 116.189,361.231 116.045 C 361.231 115.900,361.467 115.783,361.755 115.783 C 362.043 115.783,362.279 115.665,362.279 115.521 C 362.279 115.377,361.690 115.259,360.969 115.259 L 359.659 115.259 359.659 116.306 M133.534 122.397 L 133.604 129.142 129.935 129.142 L 126.266 129.142 126.198 141.126 L 126.130 153.111 118.861 153.180 L 111.591 153.250 111.591 141.196 L 111.591 129.142 107.924 129.142 L 104.257 129.142 104.257 122.329 L 104.257 115.516 118.861 115.584 L 133.464 115.652 133.534 122.397 M363.065 116.830 C 363.065 117.119,363.183 117.354,363.327 117.354 C 363.471 117.354,363.589 117.119,363.589 116.830 C 363.589 116.542,363.471 116.306,363.327 116.306 C 363.183 116.306,363.065 116.542,363.065 116.830 M369.876 119.712 L 369.876 120.760 371.818 120.760 C 373.127 120.760,373.805 120.653,373.894 120.432 C 373.994 120.186,374.097 120.202,374.309 120.498 C 374.559 120.847,374.622 120.847,374.873 120.498 C 375.085 120.202,375.187 120.186,375.287 120.432 C 375.496 120.945,375.900 120.816,375.900 120.236 C 375.900 119.745,375.726 119.712,373.150 119.712 C 370.574 119.712,370.399 119.679,370.399 119.188 C 370.399 118.900,370.282 118.664,370.138 118.664 C 369.993 118.664,369.876 119.136,369.876 119.712 M197.617 121.973 C 203.224 124.110,204.683 131.810,199.560 132.220 C 197.280 132.402,196.835 132.096,196.638 130.205 C 196.338 127.340,195.395 126.261,193.189 126.261 C 190.284 126.261,189.385 127.868,189.234 133.333 C 189.004 141.592,192.453 144.063,198.654 140.083 L 199.951 139.251 200.981 140.418 C 201.875 141.430,202.939 143.266,202.700 143.384 C 202.656 143.406,202.119 143.811,201.507 144.284 C 197.942 147.041,191.792 148.037,188.419 146.404 C 179.910 142.285,180.791 124.640,189.653 121.681 C 191.287 121.136,195.862 121.303,197.617 121.973 M218.556 121.654 C 223.765 123.011,226.806 129.060,226.041 136.542 C 225.912 137.803,225.688 139.041,225.544 139.293 C 225.399 139.545,225.041 140.417,224.747 141.230 C 222.023 148.774,209.322 149.343,205.905 142.074 C 203.090 136.085,204.138 127.326,208.104 123.702 C 210.497 121.515,214.791 120.674,218.556 121.654 M251.473 121.954 C 256.953 123.887,258.460 131.871,253.412 132.223 C 251.085 132.386,250.426 132.040,250.424 130.655 C 250.418 125.534,245.020 124.304,243.457 129.067 C 242.226 132.819,242.958 139.205,244.818 140.953 C 246.173 142.226,249.601 141.899,251.967 140.271 C 253.705 139.076,253.889 139.105,255.121 140.772 C 256.740 142.964,256.738 143.267,255.090 144.386 C 246.821 149.999,238.352 147.256,236.660 138.417 C 234.400 126.603,241.688 118.503,251.473 121.954 M172.855 121.709 C 173.306 121.799,173.674 122.026,173.674 122.214 C 173.674 122.402,174.423 124.833,175.339 127.617 C 176.754 131.915,178.284 136.656,180.773 144.452 C 181.393 146.392,181.401 146.287,180.603 146.651 C 178.523 147.599,174.722 146.605,174.722 145.113 C 174.722 144.846,174.615 144.562,174.484 144.481 C 174.353 144.400,174.095 143.745,173.910 143.025 L 173.575 141.716 169.730 141.716 L 165.886 141.716 165.329 143.242 C 165.023 144.081,164.698 145.139,164.608 145.593 C 164.517 146.048,164.278 146.556,164.076 146.723 C 163.646 147.080,159.108 146.901,158.718 146.511 C 158.496 146.289,161.206 137.482,163.499 130.976 C 163.930 129.751,164.766 127.192,165.357 125.289 C 166.064 123.009,166.571 121.790,166.843 121.717 C 167.513 121.537,171.966 121.531,172.855 121.709 M271.747 121.797 C 272.311 122.011,272.547 122.500,273.358 125.137 C 273.881 126.835,274.637 129.227,275.038 130.452 C 277.398 137.656,280.026 145.941,280.026 146.177 C 280.026 146.644,278.060 147.016,276.270 146.888 C 274.020 146.727,273.574 146.294,272.820 143.541 L 272.317 141.703 268.394 141.775 L 264.471 141.847 263.801 144.269 C 263.148 146.627,263.107 146.695,262.256 146.856 C 261.045 147.085,257.786 146.823,257.431 146.468 C 257.146 146.184,257.768 143.568,258.280 142.895 C 258.390 142.750,258.856 141.395,259.316 139.882 C 259.776 138.369,260.907 134.833,261.830 132.024 C 262.752 129.214,263.822 125.876,264.206 124.606 C 264.591 123.335,265.075 122.127,265.281 121.921 C 265.724 121.478,270.660 121.384,271.747 121.797 M160.673 122.397 C 161.513 125.530,160.313 126.785,156.477 126.785 L 154.289 126.785 154.289 136.711 C 154.289 145.520,154.243 146.655,153.875 146.796 C 153.342 147.001,149.624 146.996,148.854 146.790 L 148.265 146.632 148.265 136.708 L 148.265 126.785 145.279 126.785 L 142.292 126.785 142.201 125.635 C 142.150 125.002,142.150 123.882,142.199 123.146 L 142.290 121.807 151.403 121.807 L 160.515 121.807 160.673 122.397 M298.571 123.707 C 298.687 126.353,298.173 126.785,294.904 126.784 L 292.469 126.784 292.554 136.607 L 292.639 146.429 291.948 146.692 C 291.194 146.978,287.849 147.043,286.902 146.790 L 286.313 146.632 286.313 136.708 L 286.313 126.785 283.329 126.785 C 279.900 126.785,280.026 126.880,280.026 124.296 C 280.026 121.551,279.095 121.791,289.420 121.870 L 298.494 121.938 298.571 123.707 M387.950 124.034 C 387.950 124.250,387.832 124.427,387.688 124.427 C 387.544 124.427,387.426 124.250,387.426 124.034 C 387.426 123.818,387.544 123.641,387.688 123.641 C 387.832 123.641,387.950 123.818,387.950 124.034 M388.998 124.034 C 388.998 124.250,388.880 124.427,388.736 124.427 C 388.592 124.427,388.474 124.250,388.474 124.034 C 388.474 123.818,388.592 123.641,388.736 123.641 C 388.880 123.641,388.998 123.818,388.998 124.034 M390.308 124.034 C 390.308 124.250,390.131 124.427,389.915 124.427 C 389.699 124.427,389.522 124.250,389.522 124.034 C 389.522 123.818,389.699 123.641,389.915 123.641 C 390.131 123.641,390.308 123.818,390.308 124.034 M391.356 124.034 C 391.356 124.250,391.238 124.427,391.094 124.427 C 390.950 124.427,390.832 124.250,390.832 124.034 C 390.832 123.818,390.950 123.641,391.094 123.641 C 391.238 123.641,391.356 123.818,391.356 124.034 M213.496 126.458 C 209.293 128.569,209.816 141.282,214.145 142.243 C 217.438 142.975,219.255 140.848,219.629 135.822 C 220.170 128.572,217.475 124.458,213.496 126.458 M267.298 132.162 L 266.231 136.477 268.414 136.477 C 269.614 136.477,270.596 136.388,270.595 136.280 C 270.594 135.935,268.836 129.034,268.595 128.430 C 268.412 127.970,268.141 128.751,267.298 132.162 M169.387 129.110 C 169.296 129.678,168.809 131.460,168.305 133.069 C 167.800 134.679,167.387 136.104,167.387 136.236 C 167.387 136.368,168.450 136.477,169.750 136.477 L 172.112 136.477 171.932 135.756 C 171.457 133.863,169.818 128.343,169.694 128.218 C 169.616 128.140,169.478 128.542,169.387 129.110 " stroke="none" fill="#fb8039" fill-rule="evenodd"></path><path id="path1" d="M191.322 121.549 C 186.281 122.276,183.180 126.641,182.904 133.399 C 182.424 145.112,189.451 149.996,199.724 145.089 C 202.606 143.713,202.878 142.697,200.916 140.636 L 199.916 139.584 198.842 140.262 C 194.887 142.759,191.473 142.549,189.870 139.711 C 187.818 136.080,188.555 128.092,191.086 126.528 C 193.784 124.860,196.964 126.945,196.982 130.393 C 196.994 132.855,201.488 132.497,202.244 129.974 C 203.682 125.173,197.777 120.617,191.322 121.549 M244.711 121.563 C 239.934 122.504,236.898 126.966,236.616 133.464 C 236.120 144.891,243.293 149.981,253.185 145.222 C 256.446 143.654,256.734 142.495,254.407 140.309 L 253.606 139.558 252.800 140.132 C 248.236 143.382,243.782 142.241,242.812 137.574 C 242.342 135.314,242.609 130.104,243.271 128.610 C 245.276 124.085,250.109 125.302,250.812 130.508 C 251.283 133.992,256.444 131.819,256.087 128.288 C 255.607 123.544,250.372 120.449,244.711 121.563 M211.092 122.156 C 205.879 124.340,203.367 131.082,204.961 138.607 C 207.407 150.146,223.223 149.867,225.439 138.246 C 226.551 132.416,225.129 126.341,222.078 123.889 C 219.119 121.511,214.406 120.768,211.092 122.156 M142.629 122.075 C 142.387 122.467,142.389 126.128,142.631 126.520 C 142.787 126.773,143.537 126.822,145.679 126.721 L 148.520 126.586 148.589 136.574 L 148.657 146.562 151.408 146.562 L 154.158 146.562 154.227 136.520 L 154.296 126.478 155.326 126.652 C 157.003 126.935,159.273 126.540,159.970 125.843 C 160.653 125.160,160.846 122.705,160.262 122.122 C 159.852 121.712,142.881 121.667,142.629 122.075 M166.740 122.057 C 166.650 122.203,165.219 126.480,163.560 131.561 C 161.901 136.642,160.146 142.013,159.658 143.496 L 158.772 146.193 159.456 146.453 C 160.896 147.000,164.046 146.643,164.268 145.907 C 165.382 142.221,165.666 141.453,165.917 141.446 C 167.605 141.398,173.746 141.444,173.790 141.505 C 173.821 141.549,174.051 142.358,174.300 143.303 C 175.083 146.275,176.359 147.140,179.300 146.694 C 181.138 146.415,181.151 146.347,180.011 142.869 C 179.449 141.154,178.272 137.511,177.397 134.774 C 176.521 132.037,175.233 128.029,174.536 125.868 L 173.267 121.938 170.085 121.865 C 168.139 121.820,166.840 121.895,166.740 122.057 M265.051 123.044 C 264.812 123.733,263.185 128.716,261.435 134.119 C 259.685 139.522,258.091 144.443,257.892 145.055 C 257.558 146.082,257.568 146.188,258.021 146.430 C 258.755 146.823,262.729 146.770,262.859 146.365 C 262.917 146.185,263.297 144.992,263.702 143.715 L 264.440 141.391 268.402 141.357 L 272.363 141.323 272.916 143.203 C 273.838 146.337,275.217 147.256,278.122 146.671 C 279.965 146.301,279.985 146.734,277.809 139.988 C 276.745 136.688,275.003 131.277,273.939 127.963 L 272.005 121.938 268.745 121.866 L 265.485 121.793 265.051 123.044 M280.447 122.222 C 280.207 122.847,280.264 126.079,280.522 126.487 C 280.697 126.763,281.397 126.822,283.596 126.749 L 286.444 126.654 286.575 136.608 L 286.706 146.562 289.456 146.562 L 292.207 146.562 292.235 136.623 L 292.263 126.684 294.668 126.652 C 297.967 126.609,299.367 125.058,298.392 122.528 L 298.114 121.807 289.360 121.807 C 281.619 121.807,280.588 121.855,280.447 122.222 M217.136 126.196 C 221.411 128.385,220.770 141.317,216.326 142.514 C 212.488 143.548,210.615 140.795,210.615 134.119 C 210.615 127.297,213.186 124.173,217.136 126.196 M170.145 128.160 C 170.245 128.628,170.777 130.714,171.328 132.796 C 172.525 137.314,172.654 137.001,169.598 137.001 C 166.906 137.001,166.928 137.016,167.393 135.427 C 167.716 134.321,169.099 129.036,169.329 128.029 C 169.549 127.059,169.925 127.119,170.145 128.160 M269.146 129.535 C 269.402 130.544,269.951 132.531,270.364 133.951 C 271.283 137.105,271.347 137.001,268.500 137.001 C 265.653 137.001,265.671 137.027,266.497 134.039 C 266.864 132.714,267.421 130.650,267.735 129.451 C 268.383 126.978,268.497 126.985,269.146 129.535 " stroke="none" fill="#fcf9f8" fill-rule="evenodd"></path><path id="path2" d="M104.257 122.329 L 104.257 129.142 107.924 129.142 L 111.591 129.142 111.591 141.196 L 111.591 153.250 118.861 153.180 L 126.130 153.111 126.198 141.126 L 126.266 129.142 129.935 129.142 L 133.604 129.142 133.534 122.397 L 133.464 115.652 118.861 115.584 L 104.257 115.516 104.257 122.329 " stroke="none" fill="#242c34" fill-rule="evenodd"></path><path id="path3" d="M191.290 121.464 C 191.542 121.530,191.955 121.530,192.207 121.464 C 192.459 121.398,192.253 121.344,191.749 121.344 C 191.244 121.344,191.038 121.398,191.290 121.464 M194.044 121.469 C 194.370 121.531,194.841 121.529,195.091 121.464 C 195.342 121.398,195.075 121.347,194.499 121.350 C 193.923 121.353,193.718 121.406,194.044 121.469 M214.088 121.476 C 214.776 121.531,215.837 121.530,216.445 121.475 C 217.053 121.420,216.490 121.376,215.193 121.377 C 213.897 121.377,213.399 121.422,214.088 121.476 M169.032 121.738 C 169.721 121.793,170.782 121.792,171.390 121.737 C 171.998 121.682,171.434 121.638,170.138 121.638 C 168.841 121.639,168.343 121.684,169.032 121.738 M267.125 121.739 C 267.881 121.792,269.119 121.792,269.876 121.739 C 270.632 121.686,270.013 121.642,268.500 121.642 C 266.988 121.642,266.369 121.686,267.125 121.739 M142.344 122.175 C 142.266 122.378,142.244 122.938,142.294 123.420 C 142.375 124.188,142.401 124.143,142.511 123.052 C 142.640 121.776,142.592 121.528,142.344 122.175 M188.295 122.340 C 187.764 122.621,187.260 122.963,187.175 123.100 C 187.053 123.297,189.179 122.253,189.631 121.894 C 189.978 121.619,189.117 121.906,188.295 122.340 M197.922 122.430 C 198.651 122.770,199.712 123.443,200.279 123.924 C 201.160 124.674,201.215 124.694,200.655 124.062 C 199.927 123.241,197.598 121.812,196.988 121.812 C 196.771 121.813,197.192 122.091,197.922 122.430 M219.935 122.485 C 220.641 122.858,221.512 123.418,221.871 123.729 L 222.524 124.296 222.029 123.709 C 221.479 123.057,219.470 121.807,218.971 121.807 C 218.795 121.807,219.229 122.112,219.935 122.485 M209.692 122.552 C 209.260 122.816,208.733 123.258,208.521 123.533 C 208.204 123.946,208.250 123.936,208.783 123.477 C 209.139 123.170,209.784 122.733,210.216 122.505 C 210.648 122.277,210.884 122.086,210.740 122.081 C 210.596 122.076,210.124 122.288,209.692 122.552 M241.323 122.838 C 240.739 123.261,240.179 123.741,240.077 123.905 C 239.936 124.134,241.986 122.694,242.545 122.171 C 242.951 121.792,242.205 122.199,241.323 122.838 M252.950 123.078 C 253.517 123.489,254.301 124.205,254.692 124.670 C 255.083 125.135,255.403 125.400,255.403 125.259 C 255.403 124.926,252.564 122.331,252.199 122.331 C 252.045 122.331,252.383 122.667,252.950 123.078 M280.110 124.165 C 280.110 125.102,280.158 125.485,280.216 125.016 C 280.274 124.548,280.274 123.782,280.216 123.314 C 280.158 122.845,280.110 123.229,280.110 124.165 M223.304 125.147 C 223.708 125.760,224.088 126.261,224.149 126.261 C 224.338 126.261,223.335 124.666,222.942 124.341 C 222.737 124.172,222.900 124.535,223.304 125.147 M206.680 125.475 C 206.372 125.907,206.179 126.261,206.251 126.261 C 206.323 126.261,206.634 125.907,206.942 125.475 C 207.249 125.043,207.442 124.689,207.370 124.689 C 207.298 124.689,206.988 125.043,206.680 125.475 M142.240 125.721 C 142.240 126.145,142.333 126.549,142.447 126.620 C 142.561 126.690,142.607 126.343,142.549 125.849 C 142.421 124.748,142.240 124.674,142.240 125.721 M273.188 125.612 C 273.636 127.017,273.747 127.191,273.606 126.269 C 273.530 125.769,273.349 125.241,273.203 125.096 C 273.026 124.918,273.021 125.087,273.188 125.612 M263.684 126.424 C 263.451 127.106,263.270 127.790,263.280 127.945 C 263.291 128.099,263.526 127.586,263.804 126.806 C 264.081 126.025,264.262 125.341,264.207 125.285 C 264.151 125.230,263.916 125.742,263.684 126.424 M297.683 126.037 C 297.187 126.596,297.187 126.597,297.773 126.290 C 298.098 126.119,298.363 125.867,298.363 125.728 C 298.363 125.355,298.237 125.412,297.683 126.037 M215.382 125.998 C 216.205 126.103,217.192 126.395,217.575 126.645 C 217.957 126.896,218.182 126.959,218.075 126.785 C 217.744 126.250,216.184 125.735,215.005 125.771 C 213.952 125.803,213.975 125.817,215.382 125.998 M193.320 126.100 C 193.320 126.156,193.668 126.252,194.092 126.314 C 194.517 126.377,194.805 126.331,194.732 126.213 C 194.602 126.003,193.320 125.900,193.320 126.100 M247.698 126.246 C 248.143 126.352,248.673 126.525,248.877 126.631 C 249.080 126.737,249.018 126.638,248.738 126.411 C 248.459 126.184,247.928 126.011,247.560 126.026 C 246.943 126.050,246.955 126.068,247.698 126.246 M285.724 126.694 L 286.313 126.821 286.313 136.757 C 286.313 142.222,286.401 146.693,286.509 146.693 C 286.618 146.693,286.647 142.184,286.575 136.673 L 286.444 126.654 285.789 126.611 C 285.212 126.573,285.204 126.583,285.724 126.694 M292.178 126.896 C 292.099 127.102,292.087 127.544,292.151 127.879 C 292.241 128.352,292.274 128.302,292.302 127.654 C 292.330 127.013,292.474 126.795,292.927 126.707 L 293.517 126.594 292.919 126.558 C 292.590 126.539,292.257 126.691,292.178 126.896 M190.125 127.374 C 189.540 128.296,189.042 129.666,189.225 129.849 C 189.316 129.940,189.391 129.865,189.391 129.682 C 189.391 129.499,189.681 128.772,190.035 128.067 C 190.713 126.718,190.757 126.379,190.125 127.374 M256.108 128.356 C 256.290 130.364,255.530 131.496,253.690 131.955 L 252.390 132.279 253.562 132.139 C 255.783 131.873,257.079 129.558,256.195 127.439 C 256.059 127.114,256.026 127.461,256.108 128.356 M169.325 127.976 C 169.233 128.342,169.231 128.716,169.320 128.805 C 169.410 128.894,169.483 128.705,169.483 128.384 C 169.483 128.062,169.600 127.874,169.745 127.963 C 169.889 128.052,170.007 128.374,170.007 128.677 C 170.007 128.981,170.077 129.159,170.162 129.074 C 170.388 128.848,170.009 127.308,169.729 127.308 C 169.599 127.308,169.417 127.609,169.325 127.976 M243.471 128.119 C 243.241 128.564,243.099 128.975,243.156 129.032 C 243.213 129.089,243.455 128.724,243.695 128.222 C 244.233 127.092,244.047 127.006,243.471 128.119 M250.356 129.273 C 250.591 131.263,250.813 131.889,251.301 131.931 C 251.609 131.958,251.628 131.933,251.361 131.849 C 251.130 131.777,250.911 131.237,250.812 130.501 C 250.721 129.826,250.546 128.978,250.424 128.618 C 250.275 128.180,250.252 128.396,250.356 129.273 M196.643 129.404 C 196.728 130.052,196.841 130.632,196.893 130.692 C 197.090 130.920,196.940 129.249,196.719 128.749 C 196.564 128.399,196.539 128.617,196.643 129.404 M236.825 129.576 C 236.671 130.130,236.554 130.878,236.566 131.238 C 236.577 131.598,236.740 131.185,236.927 130.321 C 237.314 128.539,237.247 128.055,236.825 129.576 M267.493 130.230 C 267.322 130.972,267.229 131.626,267.288 131.684 C 267.346 131.742,267.538 131.188,267.714 130.452 C 267.891 129.716,267.983 129.062,267.920 128.998 C 267.856 128.934,267.664 129.489,267.493 130.230 M183.010 129.721 C 182.922 130.051,182.860 130.557,182.872 130.845 C 182.885 131.133,183.003 130.909,183.135 130.347 C 183.390 129.258,183.281 128.710,183.010 129.721 M175.929 130.190 C 176.019 130.694,176.198 131.284,176.327 131.500 C 176.606 131.965,176.338 130.607,175.991 129.797 C 175.840 129.444,175.820 129.571,175.929 130.190 M242.628 131.762 C 242.628 132.266,242.682 132.472,242.748 132.220 C 242.814 131.968,242.814 131.555,242.748 131.303 C 242.682 131.051,242.628 131.257,242.628 131.762 M182.677 134.119 C 182.677 135.632,182.720 136.251,182.773 135.494 C 182.826 134.738,182.826 133.500,182.773 132.744 C 182.720 131.988,182.677 132.606,182.677 134.119 M199.869 131.913 L 198.690 132.275 199.738 132.129 C 200.314 132.049,200.898 131.874,201.035 131.741 C 201.327 131.458,201.374 131.451,199.869 131.913 M266.959 132.330 C 266.942 132.570,266.861 132.983,266.778 133.246 C 266.635 133.701,266.643 133.702,266.926 133.260 C 267.091 133.003,267.173 132.590,267.108 132.343 C 267.001 131.937,266.986 131.936,266.959 132.330 M225.892 134.250 C 225.893 135.403,225.939 135.842,225.994 135.226 C 226.050 134.609,226.049 133.666,225.993 133.130 C 225.936 132.593,225.891 133.098,225.892 134.250 M236.368 134.119 C 236.368 135.200,236.415 135.642,236.471 135.102 C 236.528 134.561,236.528 133.677,236.471 133.137 C 236.415 132.597,236.368 133.039,236.368 134.119 M162.570 133.759 C 162.338 134.441,162.157 135.125,162.167 135.279 C 162.178 135.434,162.413 134.921,162.690 134.140 C 162.967 133.359,163.149 132.675,163.093 132.620 C 163.038 132.564,162.803 133.077,162.570 133.759 M188.686 133.988 C 188.688 134.853,188.737 135.175,188.795 134.704 C 188.853 134.233,188.852 133.526,188.792 133.132 C 188.733 132.739,188.685 133.124,188.686 133.988 M219.856 134.119 C 219.856 134.912,219.905 135.236,219.965 134.840 C 220.025 134.443,220.025 133.795,219.965 133.399 C 219.905 133.003,219.856 133.327,219.856 134.119 M260.277 136.898 C 259.876 138.130,259.594 139.184,259.651 139.240 C 259.707 139.297,260.081 138.335,260.482 137.103 C 260.883 135.871,261.166 134.818,261.109 134.761 C 261.053 134.705,260.678 135.666,260.277 136.898 M270.724 135.905 L 270.852 136.775 268.391 136.691 C 267.037 136.645,265.984 136.696,266.051 136.804 C 266.220 137.074,270.794 137.054,270.962 136.782 C 271.037 136.661,270.985 136.219,270.846 135.799 L 270.595 135.036 270.724 135.905 M167.155 136.421 C 167.120 137.130,172.116 137.242,172.258 136.536 C 172.295 136.352,172.265 136.323,172.192 136.470 C 171.938 136.983,167.444 136.808,167.306 136.280 C 167.217 135.941,167.178 135.977,167.155 136.421 M276.640 136.365 C 276.613 136.760,277.444 139.146,277.566 139.024 C 277.622 138.969,277.440 138.284,277.163 137.504 C 276.886 136.723,276.650 136.210,276.640 136.365 M189.023 137.381 C 189.179 138.461,189.830 139.902,190.566 140.799 C 190.802 141.087,190.681 140.760,190.295 140.072 C 189.910 139.384,189.433 138.264,189.234 137.583 C 188.891 136.407,188.880 136.397,189.023 137.381 M219.576 137.263 C 219.576 137.767,219.630 137.973,219.696 137.721 C 219.762 137.469,219.762 137.056,219.696 136.804 C 219.630 136.552,219.576 136.758,219.576 137.263 M242.843 137.656 C 242.839 138.496,243.744 140.220,244.563 140.929 L 245.318 141.583 244.562 140.747 C 244.146 140.287,243.590 139.285,243.326 138.521 C 243.062 137.757,242.845 137.367,242.843 137.656 M183.129 138.834 C 183.101 139.338,183.634 141.273,183.765 141.142 C 183.820 141.087,183.704 140.457,183.508 139.742 C 183.312 139.027,183.141 138.618,183.129 138.834 M236.818 138.890 C 236.799 139.507,237.824 142.191,238.157 142.397 C 238.306 142.489,238.278 142.285,238.093 141.944 C 237.909 141.602,237.550 140.675,237.296 139.882 C 237.041 139.090,236.826 138.643,236.818 138.890 M178.932 139.504 C 178.905 139.896,179.998 143.076,180.119 142.955 C 180.174 142.900,179.934 142.038,179.585 141.041 C 179.237 140.043,178.943 139.352,178.932 139.504 M253.831 139.702 C 253.831 139.747,254.214 140.130,254.682 140.553 L 255.534 141.323 254.764 140.472 C 254.047 139.678,253.831 139.500,253.831 139.702 M205.370 140.768 C 205.370 141.049,206.149 142.502,206.300 142.502 C 206.372 142.502,206.236 142.119,205.998 141.650 C 205.512 140.694,205.370 140.495,205.370 140.768 M218.050 141.228 C 217.775 141.536,217.197 141.943,216.765 142.134 C 216.272 142.352,216.151 142.485,216.441 142.491 C 216.848 142.500,219.101 140.693,218.705 140.675 C 218.619 140.671,218.324 140.920,218.050 141.228 M159.425 143.468 C 159.049 144.594,158.752 145.633,158.762 145.777 C 158.773 145.921,159.126 145.045,159.546 143.831 C 159.966 142.617,160.264 141.578,160.208 141.522 C 160.152 141.466,159.800 142.342,159.425 143.468 M256.002 142.829 C 256.068 143.009,255.872 143.451,255.566 143.811 L 255.010 144.466 255.711 143.849 C 256.293 143.337,256.477 142.502,256.008 142.502 C 255.939 142.502,255.937 142.649,256.002 142.829 M263.418 144.492 C 263.165 145.296,263.005 146.000,263.063 146.058 C 263.120 146.115,263.375 145.505,263.628 144.702 C 263.881 143.899,264.041 143.194,263.984 143.137 C 263.926 143.079,263.672 143.689,263.418 144.492 M257.709 144.843 C 257.301 146.116,257.439 146.705,258.140 146.685 C 258.291 146.681,258.217 146.561,257.974 146.419 C 257.567 146.182,257.564 146.069,257.938 144.973 C 258.161 144.318,258.293 143.733,258.231 143.671 C 258.170 143.609,257.934 144.137,257.709 144.843 M221.995 144.612 C 221.901 144.764,221.275 145.234,220.604 145.655 C 219.933 146.076,219.475 146.423,219.586 146.426 C 219.901 146.434,221.710 145.240,222.105 144.764 C 222.301 144.528,222.395 144.335,222.313 144.335 C 222.232 144.335,222.089 144.460,221.995 144.612 M198.428 145.674 C 197.564 146.097,197.151 146.367,197.511 146.273 C 198.267 146.075,200.654 144.878,200.262 144.894 C 200.118 144.900,199.293 145.251,198.428 145.674 M209.150 145.474 C 209.916 146.131,211.003 146.594,210.725 146.145 C 210.644 146.014,210.456 145.907,210.307 145.907 C 210.157 145.907,209.663 145.662,209.209 145.361 L 208.382 144.816 209.150 145.474 M186.771 145.225 C 186.771 145.487,188.726 146.693,189.124 146.676 C 189.345 146.667,189.248 146.550,188.905 146.413 C 188.566 146.277,187.947 145.923,187.530 145.626 C 187.113 145.328,186.771 145.148,186.771 145.225 M251.997 145.776 C 251.637 145.982,251.460 146.150,251.604 146.150 C 251.749 146.150,252.161 145.982,252.521 145.776 C 252.881 145.570,253.058 145.402,252.914 145.402 C 252.770 145.402,252.358 145.570,251.997 145.776 M241.519 145.999 C 241.735 146.205,242.207 146.461,242.567 146.566 C 243.397 146.809,243.214 146.635,242.043 146.067 C 241.378 145.744,241.234 145.726,241.519 145.999 M195.547 146.693 C 195.217 146.835,195.168 146.918,195.416 146.918 C 195.632 146.918,196.045 146.817,196.333 146.693 C 196.663 146.551,196.711 146.468,196.464 146.468 C 196.248 146.468,195.835 146.569,195.547 146.693 M150.289 146.882 C 150.754 146.940,151.579 146.941,152.123 146.884 C 152.666 146.827,152.286 146.780,151.277 146.779 C 150.269 146.778,149.824 146.824,150.289 146.882 M160.767 146.882 C 161.232 146.940,162.057 146.941,162.601 146.884 C 163.144 146.827,162.764 146.780,161.755 146.779 C 160.747 146.778,160.302 146.824,160.767 146.882 M259.528 146.882 C 259.997 146.940,260.763 146.940,261.231 146.882 C 261.699 146.824,261.316 146.777,260.380 146.777 C 259.443 146.777,259.060 146.824,259.528 146.882 M288.350 146.885 C 288.966 146.940,289.909 146.940,290.446 146.883 C 290.982 146.827,290.478 146.782,289.325 146.783 C 288.173 146.784,287.734 146.830,288.350 146.885 M191.415 147.144 C 191.880 147.202,192.705 147.203,193.249 147.146 C 193.792 147.089,193.412 147.042,192.403 147.041 C 191.395 147.040,190.950 147.086,191.415 147.144 M214.080 147.146 C 214.620 147.202,215.504 147.202,216.045 147.146 C 216.585 147.089,216.143 147.043,215.062 147.043 C 213.982 147.043,213.540 147.089,214.080 147.146 M245.514 147.146 C 246.054 147.202,246.938 147.202,247.479 147.146 C 248.019 147.089,247.577 147.043,246.496 147.043 C 245.416 147.043,244.974 147.089,245.514 147.146 " stroke="none" fill="#fca474" fill-rule="evenodd"></path><path id="path4" d="M275.362 1.491 L 275.311 3.113 274.198 3.214 L 273.084 3.314 274.198 3.360 L 275.311 3.405 275.311 4.960 L 275.311 6.516 274.460 6.621 L 273.608 6.727 274.450 6.769 L 275.291 6.811 275.378 9.103 L 275.465 11.395 275.519 9.103 L 275.573 6.811 276.883 6.811 C 277.603 6.811,278.193 6.929,278.193 7.073 C 278.193 7.217,277.957 7.335,277.669 7.335 C 277.380 7.335,277.145 7.453,277.145 7.597 C 277.145 7.741,277.380 7.859,277.669 7.859 C 277.957 7.859,278.193 7.976,278.193 8.120 C 278.193 8.265,277.957 8.382,277.669 8.382 C 277.380 8.382,277.145 8.500,277.145 8.644 C 277.145 8.788,277.380 8.906,277.669 8.906 C 277.957 8.906,278.193 9.024,278.193 9.168 C 278.193 9.312,277.957 9.430,277.669 9.430 C 277.378 9.430,277.145 9.605,277.145 9.823 C 277.145 10.041,277.378 10.216,277.669 10.216 C 277.957 10.216,278.193 10.334,278.193 10.478 C 278.193 10.622,277.957 10.740,277.669 10.740 C 277.380 10.740,277.145 10.858,277.145 11.002 C 277.145 11.146,277.380 11.264,277.669 11.264 C 277.957 11.264,278.193 11.382,278.193 11.526 C 278.193 11.670,277.957 11.788,277.669 11.788 C 277.380 11.788,277.145 11.906,277.145 12.050 C 277.145 12.194,277.380 12.312,277.669 12.312 C 277.957 12.312,278.193 12.430,278.193 12.574 C 278.193 12.718,277.957 12.836,277.669 12.836 C 277.378 12.836,277.145 13.010,277.145 13.229 C 277.145 13.491,277.407 13.621,277.931 13.621 C 278.722 13.621,278.996 13.988,278.389 14.235 C 278.142 14.335,278.159 14.437,278.454 14.649 C 278.804 14.900,278.804 14.960,278.454 15.193 C 278.105 15.426,278.105 15.486,278.454 15.737 C 278.750 15.949,278.767 16.052,278.520 16.152 C 278.340 16.225,278.193 16.442,278.193 16.634 C 278.193 16.826,278.340 17.043,278.520 17.116 C 278.767 17.216,278.750 17.319,278.454 17.531 C 278.105 17.781,278.105 17.842,278.454 18.075 C 278.804 18.308,278.804 18.366,278.454 18.599 C 278.105 18.831,278.105 18.892,278.454 19.142 C 278.750 19.355,278.767 19.457,278.520 19.557 C 278.136 19.713,278.076 20.432,278.447 20.432 C 278.594 20.432,278.735 21.889,278.783 23.903 L 278.864 27.374 278.921 23.903 L 278.978 20.432 279.764 20.432 C 280.196 20.432,280.550 20.550,280.550 20.694 C 280.550 20.838,280.314 20.956,280.026 20.956 C 279.738 20.956,279.502 21.074,279.502 21.218 C 279.502 21.362,279.738 21.480,280.026 21.480 C 280.314 21.480,280.550 21.598,280.550 21.742 C 280.550 21.886,280.314 22.004,280.026 22.004 C 279.738 22.004,279.502 22.122,279.502 22.266 C 279.502 22.410,279.738 22.528,280.026 22.528 C 280.314 22.528,280.550 22.646,280.550 22.790 C 280.550 22.934,280.314 23.052,280.026 23.052 C 279.735 23.052,279.502 23.226,279.502 23.445 C 279.502 23.663,279.735 23.838,280.026 23.838 C 280.314 23.838,280.550 23.955,280.550 24.100 C 280.550 24.244,280.314 24.361,280.026 24.361 C 279.738 24.361,279.502 24.479,279.502 24.623 C 279.502 24.768,279.974 24.885,280.550 24.885 C 281.126 24.885,281.598 25.003,281.598 25.147 C 281.598 25.291,281.362 25.409,281.074 25.409 C 280.786 25.409,280.550 25.527,280.550 25.671 C 280.550 25.815,280.786 25.933,281.074 25.933 C 281.362 25.933,281.598 26.051,281.598 26.195 C 281.598 26.339,281.362 26.457,281.074 26.457 C 280.783 26.457,280.550 26.632,280.550 26.850 C 280.550 27.068,280.783 27.243,281.074 27.243 C 281.362 27.243,281.598 27.361,281.598 27.505 C 281.598 27.649,281.362 27.767,281.074 27.767 C 280.786 27.767,280.550 27.885,280.550 28.029 C 280.550 28.173,280.786 28.291,281.074 28.291 C 281.362 28.291,281.598 28.409,281.598 28.553 C 281.598 28.697,281.362 28.815,281.074 28.815 C 280.786 28.815,280.550 28.933,280.550 29.077 C 280.550 29.221,280.904 29.339,281.336 29.339 C 281.768 29.339,282.122 29.456,282.122 29.601 C 282.122 29.745,282.004 29.862,281.860 29.862 C 281.483 29.862,281.537 30.580,281.925 30.738 C 282.172 30.838,282.156 30.940,281.860 31.152 C 281.511 31.403,281.511 31.463,281.860 31.696 C 282.209 31.929,282.209 31.989,281.860 32.240 C 281.564 32.452,281.548 32.555,281.794 32.655 C 282.561 32.966,282.015 33.271,280.616 33.314 C 279.252 33.355,279.218 33.369,280.258 33.461 C 282.405 33.652,283.178 36.531,281.139 36.744 L 280.157 36.847 281.123 36.891 C 282.005 36.931,282.098 37.009,282.194 37.787 L 282.300 38.638 282.342 37.787 C 282.383 36.960,283.955 36.386,283.955 37.197 C 283.955 37.341,284.191 37.459,284.479 37.459 C 284.768 37.459,285.003 37.577,285.003 37.721 C 285.003 37.865,284.768 37.983,284.479 37.983 C 284.191 37.983,283.955 38.101,283.955 38.245 C 283.955 38.389,284.309 38.507,284.741 38.507 C 285.539 38.507,285.796 38.862,285.200 39.140 C 284.938 39.262,284.938 39.323,285.200 39.446 C 286.018 39.828,285.365 40.079,283.552 40.079 C 281.872 40.079,281.628 40.133,281.915 40.446 C 282.101 40.648,282.292 40.707,282.340 40.577 C 282.492 40.165,284.746 40.308,285.195 40.757 C 285.550 41.112,285.557 41.212,285.242 41.432 C 284.958 41.630,284.949 41.721,285.200 41.823 C 286.260 42.253,285.531 43.456,284.152 43.553 L 282.777 43.649 284.140 43.697 L 285.503 43.746 285.595 45.514 L 285.687 47.282 285.738 45.514 C 285.777 44.162,286.313 42.758,286.313 44.008 C 286.313 44.152,286.549 44.270,286.837 44.270 C 287.125 44.270,287.361 44.388,287.361 44.532 C 287.361 44.676,287.125 44.794,286.837 44.794 C 286.549 44.794,286.313 44.912,286.313 45.056 C 286.313 45.200,286.549 45.318,286.837 45.318 C 287.125 45.318,287.361 45.435,287.361 45.580 C 287.361 45.724,287.597 45.842,287.885 45.842 C 288.173 45.842,288.409 45.959,288.409 46.103 C 288.409 46.248,288.173 46.365,287.885 46.365 C 287.594 46.365,287.361 46.540,287.361 46.758 C 287.361 47.020,287.623 47.151,288.147 47.151 C 288.938 47.151,289.212 47.518,288.605 47.764 C 288.359 47.864,288.375 47.967,288.671 48.179 C 289.020 48.430,289.020 48.490,288.671 48.723 C 288.375 48.920,288.356 49.036,288.594 49.190 C 288.791 49.317,288.944 50.286,288.999 51.744 L 289.087 54.093 289.141 51.670 L 289.194 49.247 289.980 49.247 C 290.413 49.247,290.766 49.365,290.766 49.509 C 290.766 49.653,290.530 49.771,290.242 49.771 C 289.951 49.771,289.718 49.945,289.718 50.164 C 289.718 50.382,289.951 50.557,290.242 50.557 C 290.530 50.557,290.766 50.675,290.766 50.819 C 290.766 50.963,290.530 51.081,290.242 51.081 C 289.954 51.081,289.718 51.198,289.718 51.343 C 289.718 51.487,290.190 51.604,290.766 51.604 C 291.343 51.604,291.814 51.722,291.814 51.866 C 291.814 52.010,291.578 52.128,291.290 52.128 C 291.002 52.128,290.766 52.246,290.766 52.390 C 290.766 52.534,291.002 52.652,291.290 52.652 C 291.578 52.652,291.814 52.770,291.814 52.914 C 291.814 53.058,291.578 53.176,291.290 53.176 C 290.999 53.176,290.766 53.351,290.766 53.569 C 290.766 53.860,291.072 53.962,291.945 53.962 C 292.593 53.962,293.124 54.080,293.124 54.224 C 293.124 54.368,292.829 54.486,292.469 54.486 C 292.109 54.486,291.814 54.604,291.814 54.748 C 291.814 54.892,292.109 55.010,292.469 55.010 C 292.829 55.010,293.124 55.128,293.124 55.272 C 293.124 55.416,292.829 55.534,292.469 55.534 C 292.109 55.534,291.814 55.652,291.814 55.796 C 291.814 55.940,292.344 56.058,292.993 56.058 C 293.641 56.058,294.172 56.176,294.172 56.320 C 294.172 56.464,293.936 56.582,293.648 56.582 C 293.357 56.582,293.124 56.756,293.124 56.974 C 293.124 57.193,293.357 57.367,293.648 57.367 C 293.936 57.367,294.172 57.485,294.172 57.629 C 294.172 57.773,293.936 57.891,293.648 57.891 C 293.360 57.891,293.124 58.009,293.124 58.153 C 293.124 58.297,293.595 58.415,294.172 58.415 C 294.748 58.415,295.219 58.533,295.219 58.677 C 295.219 58.821,294.984 58.939,294.695 58.939 C 294.407 58.939,294.172 59.057,294.172 59.201 C 294.172 59.345,294.407 59.463,294.695 59.463 C 294.984 59.463,295.219 59.581,295.219 59.725 C 295.219 59.869,294.984 59.987,294.695 59.987 C 294.404 59.987,294.172 60.162,294.172 60.380 C 294.172 60.671,294.477 60.773,295.350 60.773 C 295.999 60.773,296.529 60.891,296.529 61.035 C 296.529 61.179,296.234 61.297,295.874 61.297 C 295.514 61.297,295.219 61.415,295.219 61.559 C 295.219 61.703,295.514 61.821,295.874 61.821 C 296.355 61.821,296.529 61.960,296.529 62.344 C 296.529 62.694,296.704 62.868,297.053 62.868 C 297.341 62.868,297.577 62.986,297.577 63.130 C 297.577 63.274,297.341 63.392,297.053 63.392 C 296.762 63.392,296.529 63.567,296.529 63.785 C 296.529 64.069,296.820 64.178,297.577 64.178 C 298.153 64.178,298.625 64.296,298.625 64.440 C 298.625 64.584,298.389 64.702,298.101 64.702 C 297.813 64.702,297.577 64.820,297.577 64.964 C 297.577 65.108,298.107 65.226,298.756 65.226 C 299.404 65.226,299.935 65.344,299.935 65.488 C 299.935 65.632,299.640 65.750,299.280 65.750 C 298.919 65.750,298.625 65.868,298.625 66.012 C 298.625 66.156,298.919 66.274,299.280 66.274 C 299.640 66.274,299.935 66.392,299.935 66.536 C 299.935 66.680,299.640 66.798,299.280 66.798 C 298.872 66.798,298.625 66.946,298.625 67.191 C 298.625 67.482,298.930 67.583,299.804 67.583 C 300.452 67.583,300.982 67.701,300.982 67.845 C 300.982 67.990,300.747 68.107,300.458 68.107 C 300.170 68.107,299.935 68.225,299.935 68.369 C 299.935 68.513,300.170 68.631,300.458 68.631 C 300.808 68.631,300.982 68.806,300.982 69.155 C 300.982 69.504,301.157 69.679,301.506 69.679 C 303.192 69.679,301.640 70.197,299.738 70.270 L 297.446 70.357 299.738 70.411 C 301.056 70.442,302.030 70.576,302.030 70.727 C 302.030 70.871,302.325 70.989,302.685 70.989 C 303.045 70.989,303.340 71.107,303.340 71.251 C 303.340 71.395,303.045 71.513,302.685 71.513 C 302.325 71.513,302.030 71.631,302.030 71.775 C 302.030 71.919,302.561 72.037,303.209 72.037 C 303.857 72.037,304.388 72.155,304.388 72.299 C 304.388 72.443,304.152 72.561,303.864 72.561 C 303.576 72.561,303.340 72.678,303.340 72.823 C 303.340 72.967,303.576 73.084,303.864 73.084 C 305.632 73.084,303.994 73.617,302.096 73.660 C 299.927 73.708,299.899 73.716,301.572 73.803 C 302.544 73.853,303.340 74.007,303.340 74.144 C 303.340 74.282,304.106 74.394,305.043 74.394 C 306.003 74.394,306.745 74.508,306.745 74.656 C 306.745 74.800,306.451 74.918,306.090 74.918 C 305.730 74.918,305.435 75.036,305.435 75.180 C 305.435 75.324,305.730 75.442,306.090 75.442 C 306.451 75.442,306.745 75.560,306.745 75.704 C 306.745 75.848,306.451 75.966,306.090 75.966 C 305.730 75.966,305.435 76.084,305.435 76.228 C 305.435 76.372,305.966 76.490,306.614 76.490 C 309.004 76.490,307.753 77.015,305.239 77.066 C 302.720 77.118,302.713 77.120,304.715 77.208 C 305.832 77.258,306.745 77.411,306.745 77.549 C 306.745 77.687,307.217 77.800,307.793 77.800 C 308.369 77.800,308.841 77.917,308.841 78.062 C 308.841 78.206,308.605 78.324,308.317 78.324 C 308.029 78.324,307.793 78.441,307.793 78.585 C 307.793 78.730,308.324 78.847,308.972 78.847 C 309.620 78.847,310.151 78.965,310.151 79.109 C 310.151 79.253,309.856 79.371,309.496 79.371 C 309.136 79.371,308.841 79.489,308.841 79.633 C 308.841 79.777,309.136 79.895,309.496 79.895 C 311.521 79.895,309.768 80.427,307.597 80.471 C 305.270 80.519,305.211 80.531,306.942 80.614 C 307.986 80.663,308.841 80.817,308.841 80.955 C 308.841 81.322,309.557 81.260,309.736 80.878 C 309.858 80.616,309.919 80.616,310.041 80.878 C 310.126 81.058,310.656 81.205,311.220 81.205 C 311.785 81.205,312.246 81.323,312.246 81.467 C 312.246 81.611,312.010 81.729,311.722 81.729 C 311.434 81.729,311.198 81.847,311.198 81.991 C 311.198 82.135,311.434 82.253,311.722 82.253 C 312.010 82.253,312.246 82.371,312.246 82.515 C 312.246 82.659,312.010 82.777,311.722 82.777 C 311.434 82.777,311.198 82.895,311.198 83.039 C 311.198 83.183,311.729 83.301,312.377 83.301 C 314.770 83.301,313.473 83.809,310.871 83.891 L 308.186 83.976 310.871 84.031 C 312.450 84.064,313.556 84.194,313.556 84.348 C 313.556 84.492,313.792 84.610,314.080 84.610 C 314.368 84.610,314.604 84.728,314.604 84.872 C 314.604 85.016,314.368 85.134,314.080 85.134 C 313.792 85.134,313.556 85.252,313.556 85.396 C 313.556 85.540,314.028 85.658,314.604 85.658 L 315.652 85.658 315.687 87.426 C 315.707 88.399,315.774 88.929,315.836 88.605 C 315.996 87.775,318.009 87.714,318.009 88.540 C 318.009 88.889,318.184 89.064,318.533 89.064 C 319.001 89.064,319.062 89.254,319.104 90.832 C 319.143 92.299,319.168 92.388,319.250 91.356 L 319.348 90.111 320.381 90.111 C 321.125 90.111,321.415 90.221,321.415 90.504 C 321.415 90.723,321.182 90.897,320.891 90.897 C 320.602 90.897,320.367 91.015,320.367 91.159 C 320.367 91.303,320.838 91.421,321.415 91.421 C 321.991 91.421,322.462 91.539,322.462 91.683 C 322.462 91.827,322.227 91.945,321.938 91.945 C 321.650 91.945,321.415 92.063,321.415 92.207 C 321.415 92.351,321.650 92.469,321.938 92.469 C 322.383 92.469,322.468 92.657,322.502 93.713 C 322.526 94.482,322.583 94.682,322.650 94.237 C 322.777 93.401,324.820 93.093,324.820 93.910 C 324.820 94.128,324.587 94.303,324.296 94.303 C 324.008 94.303,323.772 94.420,323.772 94.565 C 323.772 94.709,324.244 94.826,324.820 94.826 L 325.868 94.826 325.868 95.874 L 325.868 96.922 327.570 96.922 C 328.909 96.922,329.273 97.006,329.273 97.315 C 329.273 97.533,329.040 97.708,328.749 97.708 C 328.461 97.708,328.225 97.826,328.225 97.970 C 328.225 98.114,328.461 98.232,328.749 98.232 C 329.185 98.232,329.279 98.418,329.309 99.345 C 329.328 99.957,329.396 100.193,329.458 99.869 C 329.579 99.240,332.940 98.924,332.940 99.542 C 332.940 99.686,332.646 99.804,332.286 99.804 C 331.925 99.804,331.631 99.921,331.631 100.065 C 331.631 100.210,332.161 100.327,332.809 100.327 C 333.683 100.327,333.988 100.429,333.988 100.720 C 333.988 100.939,333.755 101.113,333.464 101.113 C 333.176 101.113,332.940 101.231,332.940 101.375 C 332.940 101.523,333.683 101.637,334.643 101.637 C 335.604 101.637,336.346 101.751,336.346 101.899 C 336.346 102.043,336.051 102.161,335.691 102.161 C 335.331 102.161,335.036 102.279,335.036 102.423 C 335.036 102.567,335.331 102.685,335.691 102.685 C 336.171 102.685,336.346 102.825,336.346 103.209 C 336.346 103.679,336.520 103.733,338.048 103.733 C 339.387 103.733,339.751 103.817,339.751 104.126 C 339.751 104.370,339.504 104.519,339.096 104.519 C 338.736 104.519,338.441 104.637,338.441 104.781 C 338.441 104.925,338.972 105.043,339.620 105.043 C 340.269 105.043,340.799 105.160,340.799 105.305 C 340.799 105.449,340.563 105.566,340.275 105.566 C 339.987 105.566,339.751 105.684,339.751 105.828 C 339.751 105.976,340.493 106.090,341.454 106.090 C 342.414 106.090,343.157 106.205,343.157 106.352 C 343.157 106.496,342.872 106.614,342.523 106.614 C 342.175 106.614,341.831 106.762,341.758 106.942 C 341.658 107.188,341.555 107.172,341.343 106.876 C 341.131 106.580,341.010 106.561,340.856 106.799 C 340.731 106.992,339.786 107.150,338.433 107.204 C 337.042 107.260,337.705 107.313,340.210 107.347 C 344.012 107.398,344.204 107.425,344.204 107.924 C 344.204 108.394,344.379 108.448,345.907 108.448 C 346.867 108.448,347.610 108.562,347.610 108.710 C 347.610 108.854,347.374 108.972,347.086 108.972 C 346.798 108.972,346.562 109.090,346.562 109.234 C 346.562 109.378,347.033 109.496,347.610 109.496 C 348.186 109.496,348.657 109.614,348.657 109.758 C 348.657 109.902,348.422 110.020,348.134 110.020 C 347.845 110.020,347.610 110.134,347.610 110.273 C 347.610 110.416,346.329 110.563,344.663 110.610 C 342.772 110.664,343.570 110.714,346.889 110.750 C 350.126 110.785,352.063 110.904,352.063 111.067 C 352.063 111.212,351.827 111.329,351.539 111.329 C 351.251 111.329,351.015 111.447,351.015 111.591 C 351.015 111.735,351.546 111.853,352.194 111.853 C 352.842 111.853,353.373 111.971,353.373 112.115 C 353.373 112.259,353.078 112.377,352.718 112.377 C 352.358 112.377,352.063 112.495,352.063 112.639 C 352.063 112.791,352.892 112.901,354.028 112.901 C 356.110 112.901,356.234 112.958,355.575 113.617 C 355.221 113.971,355.123 113.978,354.921 113.664 C 354.738 113.381,354.634 113.369,354.476 113.613 C 354.338 113.825,353.227 113.959,351.136 114.015 C 348.019 114.098,348.024 114.099,351.982 114.155 L 355.962 114.211 356.062 115.324 L 356.163 116.437 356.208 115.324 L 356.254 114.211 357.564 114.211 C 358.284 114.211,358.874 114.329,358.874 114.473 C 358.874 114.617,358.638 114.735,358.350 114.735 C 358.062 114.735,357.826 114.853,357.826 114.997 C 357.826 115.141,358.179 115.259,358.612 115.259 C 359.354 115.259,359.398 115.317,359.398 116.306 L 359.398 117.354 357.848 117.354 C 356.995 117.354,356.258 117.248,356.210 117.118 C 356.162 116.988,355.971 117.047,355.785 117.249 C 355.497 117.563,355.982 117.616,359.107 117.616 C 362.694 117.616,362.769 117.628,362.880 118.206 L 362.993 118.795 363.029 118.206 C 363.062 117.664,363.192 117.616,364.637 117.616 C 366.083 117.616,366.674 117.908,365.881 118.229 C 365.641 118.327,365.633 118.420,365.851 118.579 C 366.014 118.698,366.207 119.031,366.279 119.319 C 366.351 119.607,366.423 119.342,366.440 118.730 C 366.468 117.688,368.042 116.851,368.042 117.878 C 368.042 118.022,367.806 118.140,367.518 118.140 C 367.230 118.140,366.994 118.258,366.994 118.402 C 366.994 118.546,367.583 118.664,368.304 118.664 C 369.544 118.664,370.005 118.962,369.286 119.297 C 369.024 119.419,369.024 119.480,369.286 119.603 C 370.322 120.086,369.598 120.760,368.042 120.760 C 366.961 120.760,366.469 120.657,366.466 120.432 C 366.463 120.189,366.412 120.184,366.267 120.411 C 366.160 120.579,365.661 120.767,365.158 120.827 C 364.655 120.888,367.633 120.957,371.775 120.980 C 376.593 121.007,379.306 121.116,379.306 121.284 C 379.306 121.428,379.070 121.546,378.782 121.546 C 378.494 121.546,378.258 121.663,378.258 121.807 C 378.258 121.970,379.742 122.069,382.187 122.069 C 384.632 122.069,386.117 122.168,386.117 122.331 C 386.117 122.475,385.881 122.593,385.593 122.593 C 385.305 122.593,385.069 122.711,385.069 122.855 C 385.069 123.018,386.553 123.117,388.998 123.117 C 391.443 123.117,392.927 123.216,392.927 123.379 C 392.927 123.523,392.692 123.641,392.403 123.641 C 392.112 123.641,391.880 123.816,391.880 124.034 C 391.880 124.352,392.300 124.427,394.091 124.427 L 396.303 124.427 396.403 125.540 L 396.503 126.654 396.549 125.540 L 396.595 124.427 398.151 124.427 L 399.708 124.427 399.808 125.540 C 399.863 126.153,399.929 98.157,399.954 63.327 L 400.000 0.000 338.572 0.000 C 297.795 0.000,277.145 0.088,277.145 0.262 C 277.145 0.406,276.909 0.524,276.621 0.524 C 276.333 0.524,276.097 0.642,276.097 0.786 C 276.097 0.930,276.333 1.048,276.621 1.048 C 276.909 1.048,277.145 1.166,277.145 1.310 C 277.145 1.454,276.909 1.572,276.621 1.572 C 276.333 1.572,276.097 1.690,276.097 1.834 C 276.097 1.978,276.333 2.096,276.621 2.096 C 276.909 2.096,277.145 2.213,277.145 2.358 C 277.145 2.502,276.909 2.620,276.621 2.620 C 276.333 2.620,276.097 2.737,276.097 2.881 C 276.097 3.997,275.578 2.791,275.505 1.506 L 275.412 -0.131 275.362 1.491 M277.145 3.667 C 277.145 3.811,276.909 3.929,276.621 3.929 C 276.333 3.929,276.097 4.047,276.097 4.191 C 276.097 4.335,276.333 4.453,276.621 4.453 C 277.203 4.453,277.326 4.849,276.817 5.086 C 276.555 5.208,276.555 5.270,276.817 5.392 C 277.326 5.629,277.203 6.025,276.621 6.025 C 276.333 6.025,276.097 6.143,276.097 6.287 C 276.097 6.431,275.979 6.549,275.835 6.549 C 275.689 6.549,275.573 5.850,275.573 4.977 L 275.573 3.405 276.359 3.405 C 276.791 3.405,277.145 3.523,277.145 3.667 M283.432 31.958 C 283.432 32.102,283.314 32.220,283.170 32.220 C 283.026 32.220,282.908 32.338,282.908 32.482 C 282.908 32.626,283.143 32.744,283.432 32.744 C 283.720 32.744,283.955 32.862,283.955 33.006 C 283.955 33.150,283.602 33.268,283.170 33.268 C 282.471 33.268,282.384 33.181,282.384 32.482 C 282.384 31.871,282.500 31.696,282.908 31.696 C 283.196 31.696,283.432 31.814,283.432 31.958 M282.908 33.792 C 282.908 33.936,283.143 34.054,283.432 34.054 C 283.720 34.054,283.955 34.172,283.955 34.316 C 283.955 34.460,283.720 34.578,283.432 34.578 C 283.143 34.578,282.908 34.695,282.908 34.840 C 282.908 34.984,283.143 35.102,283.432 35.102 C 283.720 35.102,283.955 35.219,283.955 35.363 C 283.955 35.508,283.720 35.625,283.432 35.625 C 283.143 35.625,282.908 35.743,282.908 35.887 C 282.908 36.031,283.379 36.149,283.955 36.149 C 284.532 36.149,285.003 36.267,285.003 36.411 C 285.003 36.555,284.414 36.673,283.694 36.673 L 282.384 36.673 282.384 35.102 C 282.384 34.228,282.500 33.530,282.646 33.530 C 282.790 33.530,282.908 33.648,282.908 33.792 M287.361 43.222 C 287.361 43.366,287.007 43.484,286.575 43.484 C 286.143 43.484,285.789 43.366,285.789 43.222 C 285.789 43.078,286.143 42.960,286.575 42.960 C 287.007 42.960,287.361 43.078,287.361 43.222 M295.219 62.606 C 295.219 62.750,295.396 62.868,295.612 62.868 C 295.828 62.868,296.005 62.750,296.005 62.606 C 296.005 62.462,295.828 62.344,295.612 62.344 C 295.396 62.344,295.219 62.462,295.219 62.606 M316.961 87.099 C 316.961 87.317,316.729 87.492,316.437 87.492 C 316.146 87.492,315.914 87.317,315.914 87.099 C 315.914 86.881,316.146 86.706,316.437 86.706 C 316.729 86.706,316.961 86.881,316.961 87.099 M323.772 92.731 C 323.772 92.875,323.536 92.993,323.248 92.993 C 322.960 92.993,322.724 92.875,322.724 92.731 C 322.724 92.587,322.960 92.469,323.248 92.469 C 323.536 92.469,323.772 92.587,323.772 92.731 M327.177 95.088 C 327.177 95.232,326.942 95.350,326.654 95.350 C 326.365 95.350,326.130 95.232,326.130 95.088 C 326.130 94.944,326.365 94.826,326.654 94.826 C 326.942 94.826,327.177 94.944,327.177 95.088 M327.177 96.136 C 327.177 96.280,326.942 96.398,326.654 96.398 C 326.365 96.398,326.130 96.280,326.130 96.136 C 326.130 95.992,326.365 95.874,326.654 95.874 C 326.942 95.874,327.177 95.992,327.177 96.136 M330.583 98.494 C 330.583 98.638,330.347 98.756,330.059 98.756 C 329.771 98.756,329.535 98.638,329.535 98.494 C 329.535 98.350,329.771 98.232,330.059 98.232 C 330.347 98.232,330.583 98.350,330.583 98.494 M362.279 115.521 C 362.279 115.665,362.043 115.783,361.755 115.783 C 361.467 115.783,361.231 115.900,361.231 116.045 C 361.231 116.189,361.585 116.306,362.017 116.306 C 362.896 116.306,362.974 116.435,362.429 116.980 C 362.213 117.195,361.546 117.354,360.857 117.354 L 359.659 117.354 359.659 116.306 L 359.659 115.259 360.969 115.259 C 361.690 115.259,362.279 115.377,362.279 115.521 M363.589 116.830 C 363.589 117.119,363.471 117.354,363.327 117.354 C 363.183 117.354,363.065 117.119,363.065 116.830 C 363.065 116.542,363.183 116.306,363.327 116.306 C 363.471 116.306,363.589 116.542,363.589 116.830 M370.399 119.188 C 370.399 119.679,370.574 119.712,373.150 119.712 C 375.726 119.712,375.900 119.745,375.900 120.236 C 375.900 120.816,375.496 120.945,375.287 120.432 C 375.187 120.186,375.085 120.202,374.873 120.498 C 374.622 120.847,374.559 120.847,374.309 120.498 C 374.097 120.202,373.994 120.186,373.894 120.432 C 373.805 120.653,373.127 120.760,371.818 120.760 L 369.876 120.760 369.876 119.712 C 369.876 119.136,369.993 118.664,370.138 118.664 C 370.282 118.664,370.399 118.900,370.399 119.188 M272.318 122.593 C 272.414 122.954,272.602 123.425,272.736 123.641 C 272.904 123.914,272.925 123.834,272.803 123.379 C 272.707 123.019,272.519 122.547,272.385 122.331 C 272.217 122.058,272.196 122.138,272.318 122.593 M160.637 123.379 C 160.637 123.883,160.691 124.090,160.757 123.838 C 160.823 123.585,160.823 123.173,160.757 122.921 C 160.691 122.669,160.637 122.875,160.637 123.379 M207.728 124.034 C 207.091 124.682,206.630 125.213,206.702 125.213 C 206.774 125.213,207.353 124.682,207.990 124.034 C 208.626 123.386,209.087 122.855,209.015 122.855 C 208.943 122.855,208.364 123.386,207.728 124.034 M240.062 123.707 L 239.293 124.558 240.144 123.789 C 240.612 123.365,240.995 122.982,240.995 122.937 C 240.995 122.735,240.779 122.913,240.062 123.707 M387.426 124.034 C 387.426 124.250,387.544 124.427,387.688 124.427 C 387.832 124.427,387.950 124.250,387.950 124.034 C 387.950 123.818,387.832 123.641,387.688 123.641 C 387.544 123.641,387.426 123.818,387.426 124.034 M388.474 124.034 C 388.474 124.250,388.592 124.427,388.736 124.427 C 388.880 124.427,388.998 124.250,388.998 124.034 C 388.998 123.818,388.880 123.641,388.736 123.641 C 388.592 123.641,388.474 123.818,388.474 124.034 M389.522 124.034 C 389.522 124.250,389.699 124.427,389.915 124.427 C 390.131 124.427,390.308 124.250,390.308 124.034 C 390.308 123.818,390.131 123.641,389.915 123.641 C 389.699 123.641,389.522 123.818,389.522 124.034 M390.832 124.034 C 390.832 124.250,390.950 124.427,391.094 124.427 C 391.238 124.427,391.356 124.250,391.356 124.034 C 391.356 123.818,391.238 123.641,391.094 123.641 C 390.950 123.641,390.832 123.818,390.832 124.034 M255.963 126.523 C 255.963 126.739,256.065 127.151,256.189 127.439 C 256.331 127.770,256.414 127.818,256.414 127.570 C 256.414 127.354,256.312 126.942,256.189 126.654 C 256.047 126.323,255.963 126.275,255.963 126.523 M148.384 136.739 C 148.384 142.286,148.418 144.555,148.461 141.781 C 148.503 139.008,148.503 134.470,148.461 131.696 C 148.418 128.923,148.384 131.192,148.384 136.739 M292.456 137.394 C 292.456 142.436,292.491 144.462,292.534 141.895 C 292.577 139.329,292.577 135.203,292.534 132.727 C 292.491 130.251,292.456 132.351,292.456 137.394 M225.718 130.845 C 225.801 131.565,225.913 132.204,225.967 132.264 C 226.151 132.470,226.012 130.844,225.789 130.190 C 225.639 129.748,225.616 129.962,225.718 130.845 M256.189 130.126 C 256.189 130.283,255.869 130.804,255.477 131.283 C 254.893 132.000,254.874 132.062,255.371 131.634 C 256.077 131.025,256.558 130.210,256.341 129.993 C 256.257 129.909,256.189 129.969,256.189 130.126 M204.397 132.678 C 204.399 133.399,204.450 133.662,204.510 133.264 C 204.570 132.866,204.569 132.277,204.507 131.954 C 204.444 131.632,204.395 131.958,204.397 132.678 M188.961 134.119 C 188.961 135.488,189.006 136.048,189.060 135.363 C 189.114 134.679,189.114 133.559,189.060 132.875 C 189.006 132.191,188.961 132.750,188.961 134.119 M242.651 134.119 C 242.651 135.056,242.699 135.439,242.757 134.971 C 242.815 134.502,242.815 133.736,242.757 133.268 C 242.699 132.800,242.651 133.183,242.651 134.119 M275.725 133.137 C 276.227 134.722,276.847 136.316,276.864 136.069 C 276.890 135.691,275.817 132.547,275.662 132.547 C 275.594 132.547,275.622 132.813,275.725 133.137 M204.394 136.215 C 204.394 136.863,204.445 137.128,204.507 136.804 C 204.570 136.480,204.570 135.950,204.507 135.625 C 204.445 135.301,204.394 135.566,204.394 136.215 M266.071 135.938 C 265.998 136.217,266.004 136.512,266.084 136.593 C 266.306 136.815,270.858 136.767,270.858 136.542 C 270.859 136.434,269.807 136.383,268.521 136.429 C 266.266 136.510,266.187 136.493,266.324 135.971 C 266.402 135.673,266.407 135.429,266.335 135.429 C 266.263 135.429,266.144 135.658,266.071 135.938 M225.863 137.001 C 225.863 137.505,225.917 137.711,225.983 137.459 C 226.049 137.207,226.049 136.794,225.983 136.542 C 225.917 136.290,225.863 136.496,225.863 137.001 M168.500 136.669 C 169.185 136.723,170.305 136.723,170.989 136.669 C 171.673 136.615,171.113 136.571,169.745 136.571 C 168.376 136.571,167.816 136.615,168.500 136.669 M252.390 140.036 L 251.604 140.711 252.431 140.166 C 253.437 139.501,253.763 139.487,254.465 140.079 C 255.009 140.537,255.009 140.536,254.511 139.948 C 253.864 139.184,253.357 139.205,252.390 140.036 M165.728 141.628 C 165.632 141.725,165.555 141.931,165.557 142.087 C 165.560 142.261,165.640 142.246,165.765 142.051 C 165.906 141.828,167.162 141.706,169.887 141.650 L 173.805 141.570 169.854 141.512 C 167.681 141.480,165.824 141.532,165.728 141.628 M264.480 141.650 C 264.413 141.758,265.614 141.816,267.149 141.778 C 272.115 141.655,272.653 141.552,268.581 141.502 C 266.393 141.476,264.547 141.542,264.480 141.650 M207.466 144.155 C 207.466 144.200,207.849 144.583,208.317 145.007 L 209.168 145.776 208.399 144.925 C 207.682 144.131,207.466 143.953,207.466 144.155 M221.987 144.925 L 221.218 145.776 222.069 145.007 C 222.538 144.583,222.921 144.200,222.921 144.155 C 222.921 143.953,222.705 144.131,221.987 144.925 " stroke="none" fill="#fc945c" fill-rule="evenodd"></path></g></svg>